<svg xmlns="http://www.w3.org/2000/svg" xml:space="preserve" width="2048" height="2048" style="shape-rendering:geometricPrecision;text-rendering:geometricPrecision;image-rendering:optimizeQuality;fill-rule:evenodd;clip-rule:evenodd"><defs><style>.fil2{fill:none}.fil0{fill:#6a6a6a}.fil3,.fil4{fill:#acadad;fill-rule:nonzero}.fil3{fill:#d9d9da}</style></defs><g id="Layer_x0020_1"><path class="fil0" d="m384 1440 27.141-832.664 603.499 161.708 664.4-174.314-43.43 845.27-611.62 125.78z"/><path d="m1760 570.526-123.136 36.815v790.939h-.104c.033 6.673-1.649 44.68-44.546 44.68-99.866 0-195.175 3.61-287.014 19.799-90.734 15.994-178.68 44.366-265.331 93.938l-15.88 9.084-15.87-9.084c-88.026-50.38-176.987-78.759-268.703-94.55-92.792-15.977-189.25-19.187-290.609-19.187-34.75 0-37.424-31.411-37.552-39.235h-.111V607.337l-123.143-36.814v931.616c103.943-9.315 231.76-13.31 352.581-.412 98.838 10.55 193.389 32.408 267.624 71.805l-.027.052 2.15 1.133c17.219 9.081 86.072 45.4 113.68 45.4 27.607 0 96.517-36.345 113.707-45.411l2.13-1.122-.027-.052c74.214-39.396 168.76-61.253 267.594-71.803 120.823-12.899 248.652-8.903 352.588.41V570.526z" style="fill:#838383;fill-rule:nonzero"/><path class="fil2" d="M256 255.999h1536v1536H256z"/><path class="fil2" d="M255.999 255.999h1536v1536h-1536z"/><path class="fil0" d="M1005.44 581.456h27.389v910.65h-27.389z"/><path class="fil3" d="M1296.46 1427.73c-73.58 10.722-145.583 25.958-211.995 47.132l-54.081 17.24-.005-49.233-.082-838.589-.003-22.888 24.845-8.701 483.292-169.257 55.347-19.382v50.971l-.01 937.425v33.093l-38.835 1.041c-83.428 2.236-171.601 8.488-258.473 21.148zM751.693 1427.73c-86.874-12.661-175.051-18.913-258.487-21.149l-38.993-1.045V383.995l55.504 19.438L993.013 572.69l24.844 8.7-.002 22.89-.073 838.596-.003 49.236-54.084-17.243c-66.418-21.177-138.424-36.416-212.002-47.14z"/><g id="_493157944"><path id="_493180552" class="fil4" d="m914.576 717.188 12.614 4.778.063 30.984-21.33-7.345-365.025-138.054 1.01-31.552 12.613 4.778z"/><path id="_493160704" class="fil4" d="m914.576 896.231 12.614 4.777.063 30.984-21.33-7.345-365.025-138.053 1.01-31.552 12.613 4.777z"/></g><g id="_493173280"><path id="_493170472" class="fil4" d="m1130.32 717.188-12.61 4.778-.06 30.984 21.33-7.345L1504 607.551l-1.01-31.552-12.61 4.778z"/><path id="_493175752" class="fil4" d="m1130.32 896.231-12.61 4.777-.06 30.984 21.33-7.345L1504 786.594l-1.01-31.552-12.61 4.777z"/></g><path class="fil2" d="M0 0h2048v2048H0z"/></g></svg>